# xmcd
#
# Track frame offsets:
#	150
#	44785
#	88918
#	133399
#	178122
#	222288
#
# Disc length: 3555 seconds
#
# Revision: 2
# Processed by: cddbd v1.5.2PL0 Copyright (c) Steve Scherf et al.
# Submitted via: EZCDDA 4.3.2
#
DISCID=610de106
DTITLE=Sons Puros da Natureza - Mais Natural
DYEAR=2000
DGENRE=
TTITLE0=Passarinhos - Baliinese Dreamscape
TTITLE1=Floresta - Astral Memories
TTITLE2=Chuva - Lullaby for the Trees
TTITLE3=Mar - Ambient #3
TTITLE4=Golfinhos - Mystic River
TTITLE5=Cachoeira - A Wind Sitar
EXTD=YEAR: 2000
EXTT0=
EXTT1=
EXTT2=
EXTT3=
EXTT4=
EXTT5=
PLAYORDER=
